<?xml version="1.0" encoding="utf-8"?>
<!-- Generator: Adobe Illustrator 27.9.1, SVG Export Plug-In . SVG Version: 6.00 Build 0)  -->
<svg version="1.1" id="Capa_1" xmlns="http://www.w3.org/2000/svg" xmlns:xlink="http://www.w3.org/1999/xlink" x="0px" y="0px"
	 viewBox="0 0 1689.47 841.89" style="enable-background:new 0 0 1689.47 841.89;" xml:space="preserve">
<style type="text/css">
	.st0{fill:#229EBB;}
	.st1{fill:#229EBC;}
	.st2{fill:#219EBB;}
	.st3{fill:#219DBB;}
</style>
<g>
	<path class="st0" d="M1654.64,479.57c-10.04,4.96-20.07,9.92-30.12,14.86c-2.39,1.17-3.58-0.15-4.62-2.16
		c-5.09-9.91-11.21-19.14-18.65-27.46c-0.72-0.8-1.28-1.81-2.57-2.24c-6.15,12.01-12.89,23.7-20.82,34.64
		c-37.89,52.27-88.65,85.11-152.2,95.97c-75.94,12.97-143.6-6.55-202.03-57.02c-5.19-4.48-5.17-6.54-0.19-11.17
		c5.81-5.39,11.14-11.25,16.49-17.08c3.47-3.79,4.48-3.79,8.36-0.32c23.36,20.93,49.67,36.87,80.24,44.56
		c68.22,17.16,130.33,5.24,185.06-40.17c22.92-19.01,40.28-42.18,52.86-69.05c2.42-5.17,2.11-6.09-2.96-8.71
		c-6.15-3.18-12.33-6.31-19-8.3c-2.72-0.81-3.64-2.48-2.94-5.26c2.4-9.46,4.69-18.95,7.11-28.41c0.89-3.49,1.97-3.93,5.91-2.58
		c12.2,4.2,23.83,9.63,34.86,16.33c27.79,16.89,48.55,40.28,63.82,68.76c0.4,0.75,0.55,1.68,1.39,2.15
		C1654.64,477.82,1654.64,478.7,1654.64,479.57z"/>
	<path class="st1" d="M1515.24,244.8c1.02,13.91,0.4,27.84,0.55,41.75c0.04,3.58-0.75,4.27-4.2,4.26
		c-11.87-0.05-23.75-0.08-35.62-0.11c-5.54-0.01-5.45-0.01-5.41-5.45c0.07-10.53-0.01-21.06,0.04-31.59
		c0.01-2.95,0.25-5.91,0.38-8.86C1485.73,244.8,1500.49,244.8,1515.24,244.8z"/>
	<path class="st2" d="M1317.04,244.8c-1.44,13.36-0.2,26.77-0.65,40.15c-0.16,4.87-0.77,5.55-5.54,5.62
		c-11.32,0.15-22.64-0.3-33.96,0.25c-5.04,0.24-6.21-1.11-6.2-6.16c0.03-13.29,0.06-26.57,0.1-39.86
		C1286.21,244.8,1301.63,244.8,1317.04,244.8z"/>
	<path class="st1" d="M1109.25,465.77c-5.61,6.39-12.59,10.49-20.68,12.81c-24.12,6.92-51.81-2.53-64.57-22.28
		c-6.32-9.79-9.27-20.84-10.67-32.25c-2.16-17.58-0.18-34.71,7.72-50.73c8.67-17.6,21.91-30.14,42.01-33.02
		c18.08-2.58,34.51,0.9,46.24,17.29c1.5-3.11,1-5.93,0.94-8.67c-0.11-5.16,0.42-5.77,5.49-5.77c8.69-0.01,17.39-0.01,26.08,0
		c4.25,0.01,5.24,1.01,5.17,5.3c-0.66,44.4-0.15,88.79-0.27,133.19c-0.09,33.03-21.55,57.31-54.38,61.32
		c-17.02,2.08-33.62,1.04-49.23-6.82c-18.53-9.32-28.56-24.45-30.49-45.01c-0.32-3.47,1.02-5.05,4.53-4.79
		c7.92,0.58,15.83,0.11,23.75,0.08c5.35-0.02,5.37-0.01,6.55,5.04c0.63,2.68,1.48,5.28,2.69,7.76c2.41,4.95,6.08,8.71,11.27,10.57
		c11.13,3.98,22.29,3.96,33-1.35c10.59-5.24,16.35-13.63,15.8-25.86c-0.25-5.47-0.04-10.96-0.04-16.44
		C1109.85,466.03,1109.55,465.9,1109.25,465.77z M1111.55,413.69c-0.25-5.58-0.54-11.94-1.99-18.17
		c-5.05-21.68-20.98-27.28-38.79-22.82c-6.41,1.6-11.29,5.48-14.13,11.45c-8.29,17.43-9.19,35.05-0.35,52.57
		c8.75,17.33,31.46,20.71,45.03,6.77C1109.17,435.43,1111.47,425.31,1111.55,413.69z"/>
	<path class="st1" d="M862.84,468.73c-7.68,6.57-16.11,11.1-25.79,13.08c-12.2,2.49-24.33,1.95-36.17-1.77
		c-16.95-5.33-26.27-20.12-24.59-38.23c0.88-9.43,2.92-18.45,9.08-26.01c6.68-8.19,15.83-12.01,25.85-14
		c13.03-2.59,26.13-4.86,39.18-7.34c7.05-1.34,10.84-4.98,11.56-10.85c0.66-5.35-1.59-9.81-6.41-12.26
		c-9.82-4.98-19.86-5.2-29.94-0.89c-5.26,2.25-7.88,6.76-9.41,12.04c-1.53,5.26-1.9,5.41-7.35,5.35
		c-7.59-0.08-15.19,0.01-22.78,0.04c-4.27,0.02-5.02-0.73-4.9-4.99c0.55-18.79,11.63-33.56,29.77-39.18
		c19.42-6.02,38.97-6.15,58.45-0.23c18.43,5.6,29.08,20.59,29.48,40.67c0.52,26.47,0.52,52.93,0.38,79.4
		c-0.02,3.84,0.16,7.69,0.14,11.53c-0.02,3.68-0.86,4.46-4.49,4.41c-7.7-0.12-15.39-0.33-23.1,0.04c-5.99,0.29-7.59-1.25-8.05-7.28
		C863.67,471.18,863.66,470.08,862.84,468.73z M862.4,414.17c-1.84,0.81-3.39,1.52-4.95,2.18c-8.12,3.39-16.9,4.19-25.3,6.47
		c-4.58,1.24-9.04,2.74-12.91,5.6c-6.1,4.51-7.19,10.99-5.99,17.72c1.04,5.85,5.27,9.04,11.18,10.42
		c11.28,2.64,25.61-3.19,32.82-13.17C863.69,434.45,862.53,424.47,862.4,414.17z"/>
	<path class="st1" d="M1380.03,421.28c-11.31-0.24-25.29,0.28-39.27-0.25c-8.35-0.32-9.42,1.25-7.27,9.53
		c3.55,13.66,13.02,22.07,26.71,23.72c10.03,1.21,20.36-3.9,25.28-12.67c1-1.78,2.23-2.42,4.22-2.4c10.35,0.07,20.7,0.11,31.04-0.02
		c2.72-0.03,3.12,0.64,2.25,3.15c-7.33,21.29-21.81,34.48-43.95,39.31c-16.91,3.68-33.25,1.79-49.1-4.76
		c-12.94-5.36-22.16-14.77-27.22-27.69c-9.05-23.07-10.41-46.69-2.13-70.21c8.01-22.75,24.9-35.23,48.62-38.58
		c11.56-1.63,23.08-1.07,34.34,2.14c18.68,5.33,30.16,18.06,36.43,35.97c3.25,9.29,4.88,18.88,5.38,28.69
		c0.16,3.07,0.51,6.13,0.7,9.19c0.22,3.64-0.74,4.82-4.4,4.98c-3.07,0.13-6.16-0.09-9.24-0.1
		C1402.51,421.27,1392.6,421.28,1380.03,421.28z M1360.93,398.06c7.91,0,15.83-0.05,23.74,0.03c2.68,0.02,3.93-1.04,3.6-3.73
		c-1.07-8.82-4.77-16.23-12.32-21.21c-8.43-5.56-17.45-6.45-26.56-1.8c-9.43,4.81-14.4,12.87-15.75,23.24
		c-0.34,2.61,1.09,3.5,3.52,3.49C1345.09,398.03,1353.01,398.06,1360.93,398.06z"/>
	<path class="st1" d="M598.13,421.28c-13.98,0-27.96,0-41.94,0c-4.09,0-4.27,0.29-3.72,4.4c1.2,8.92,4.56,16.72,11.74,22.47
		c9.37,7.49,24.74,8.01,34.7,1.32c2.63-1.76,4.68-4.02,5.85-6.96c0.94-2.37,2.56-3.3,5.09-3.29c9.9,0.04,19.81-0.05,29.71-0.06
		c3.55,0,4.26,0.97,2.89,4.54c-7.98,20.93-22.83,34.21-44.93,38.31c-15.01,2.78-30.05,1.44-44.51-3.79
		c-14.29-5.17-24.69-14.78-30.35-28.87c-9.77-24.31-10.74-49.04-0.96-73.51c8.4-21.03,24.87-32.32,47.08-35.39
		c11.2-1.54,22.42-1.38,33.39,1.67c20.96,5.83,32.97,20.33,38.91,40.57c3.21,10.93,4.39,22.15,4.72,33.48
		c0.13,4.45-0.87,5.29-5.41,5.28c-14.09-0.02-28.17-0.01-42.26-0.01C598.13,421.38,598.13,421.33,598.13,421.28z M580.59,398.06
		c7.03,0,14.06,0,21.08,0c6.77,0.01,7.03-0.29,5.78-6.91c-3.05-16.19-19.19-26.49-34.31-21.54c-11.16,3.65-17.21,11.97-19.45,23.25
		c-0.85,4.29-0.14,5.18,4.16,5.19C565.44,398.08,573.02,398.06,580.59,398.06z"/>
	<path class="st1" d="M248.71,421.44c-13.97-0.37-27.94,0.24-41.91-0.36c-2.17-0.09-4.68,0.27-4.29,3.57
		c1.21,10.33,7.32,24.46,21.52,28.56c8.86,2.56,17.2,0.92,25-3.71c2.7-1.6,4.74-3.93,5.98-6.85c1.02-2.4,2.69-3.46,5.38-3.45
		c9.79,0.03,19.58-0.13,29.37-0.17c3.48-0.02,4.23,1.2,2.86,4.99c-5.55,15.46-15.89,26.62-30.75,33.57
		c-12.9,6.04-26.56,6.37-40.39,4.95c-7.59-0.78-14.93-2.66-21.89-5.83c-13.05-5.94-22.38-15.63-27.32-28.97
		c-8.15-22.05-9.63-44.61-2.15-67.12c7.86-23.67,24.86-36.82,49.44-40.23c10.87-1.51,21.78-1.25,32.42,1.58
		c20.75,5.52,32.86,19.7,39.05,39.61c3.49,11.21,4.6,22.77,4.96,34.42c0.13,4.11-1.45,5.43-6.03,5.43
		C276.22,421.45,262.47,421.44,248.71,421.44z M230.72,398.06c7.47,0,14.93,0,22.4,0c4.79,0,5.38-0.67,4.86-5.33
		c-1.59-14.09-13.65-24.61-27.78-24.21c-13.35,0.37-25.52,12.21-26.51,25.62c-0.21,2.89,0.74,3.99,3.63,3.96
		C215.12,398,222.92,398.06,230.72,398.06z"/>
	<path class="st1" d="M656.29,372.47c0-20.54-0.01-41.09,0.01-61.63c0-3.74,0.96-4.73,4.75-4.57c8.79,0.36,17.57,0.39,26.36,0
		c3.73-0.16,4.65,0.87,4.65,4.64c0.01,8.68,0.05,17.36-0.03,26.04c-0.06,5.8,0.4,6.39,6.32,6.38c20.8-0.04,41.6-0.1,62.4-0.16
		c0.88,0,1.76-0.02,2.64,0.01c2.94,0.11,4.58,1.62,4.34,4.58c-0.46,5.71-0.42,11.39-0.01,17.1c0.21,2.9-1.39,4.5-4.4,4.49
		c-20.14-0.05-40.28-0.03-60.42-0.16c-11.22-0.07-11.1-0.15-10.89,10.34c0.35,16.8,0.41,33.6,0.63,50.4
		c0.02,1.41,0.27,2.84,0.54,4.23c2.43,12.63,9.1,17.84,21.93,17.16c10.17-0.54,16.82-7.76,17.88-19.3
		c0.92-9.97,0.87-19.95,0.33-29.94c-0.13-2.41-0.12-4.84,0-7.25c0.2-4.25,1.76-5.75,6.07-5.44c7.69,0.57,15.37,0.46,23.07,0.14
		c4.73-0.2,5.07,0.21,5.01,4.94c-0.14,11.2,0.96,22.38,0.3,33.58c-0.4,6.8-1.06,13.57-3.08,20.12
		c-5.28,17.1-16.47,28.26-33.88,32.71c-13.68,3.5-27.48,3.72-40.97-0.9c-20.85-7.14-32.2-22.92-33.16-45.89
		c-0.69-16.36-0.22-32.73-0.27-49.1c-0.01-4.17,0-8.35,0-12.52C656.37,372.47,656.33,372.47,656.29,372.47z"/>
	<path class="st1" d="M1195.6,360.37c6.73-7.38,14.12-13.29,23.1-17.14c19.37-8.31,42.44-4.05,55.77,10.36
		c7.09,7.67,9.72,17,9.94,27.2c0.59,26.37,0.29,52.74,0.37,79.11c0.01,4.38,0.54,8.75,0.05,13.16c-0.57,5.17-1.49,6.27-6.68,6.39
		c-3.96,0.1-7.93,0.01-11.89,0.02c-4.4,0.02-8.81,0.03-13.21,0.09c-4.11,0.06-5.13-0.8-5.24-4.89c-0.08-2.85,0.14-5.71,0.13-8.56
		c-0.07-24.94-0.17-49.89-0.26-74.83c-0.01-3.32-0.5-6.57-1.59-9.71c-1.56-4.52-4.53-7.86-9.12-9.31
		c-8.53-2.7-17.16-3.01-25.43,0.77c-10.03,4.59-13.6,13.57-13.95,23.67c-0.51,15.15-0.2,30.33-0.22,45.49
		c-0.02,10.77,0.01,21.54-0.01,32.31c-0.01,4.1-1,5.07-5.04,5.07c-9.14,0-18.27-0.07-27.41,0.02c-3.16,0.03-4.39-1.41-4.35-4.38
		c0.08-5.71,0.16-11.42,0.16-17.14c0.02-31.43,0.01-62.86,0-94.29c0-5.27-0.16-10.55-0.14-15.82c0.02-3.93,0.95-4.79,4.93-4.8
		c8.47-0.02,16.94-0.02,25.42,0c4.18,0.01,4.72,0.63,4.67,4.79C1195.57,352.1,1195.6,356.23,1195.6,360.37z"/>
	<path class="st1" d="M54.77,435.39c2.48,0,6.99-0.06,11.5,0.02c4.78,0.08,7.48,2.25,8.01,7.01c0.48,4.37,2.9,7.04,6.55,8.78
		c12.21,5.83,24.61,5.9,37.03,0.71c3.7-1.54,6.06-4.36,6.25-8.55c0.21-4.72-1.29-8.68-5.57-11.16c-5.49-3.19-11.62-4.59-17.72-6.02
		c-15-3.52-29.78-7.56-43.45-15.05c-22.24-12.18-21.45-42.81-9.56-55.47c4.24-4.51,9.3-7.67,15-9.89
		c22.34-8.71,44.84-8.91,67.41-0.97c14.95,5.27,22.21,16.86,25.28,31.61c1.49,7.15,2.44,9.14-7.13,8.66
		c-7.36-0.36-14.75-0.14-22.13-0.01c-3.24,0.06-5.02-0.99-5.8-4.38c-1.71-7.44-6.8-11.63-14.14-13.02
		c-7.32-1.39-14.67-1.28-21.94,0.54c-3.27,0.82-6.29,2.11-8.05,5.24c-2.79,4.98-0.9,10.43,4.77,13.52
		c7.21,3.91,15.07,6.02,22.92,8.17c11.12,3.04,22.31,5.89,33.13,9.93c4.44,1.66,8.68,3.74,12.39,6.76
		c8.66,7.06,10.9,16.66,10.67,27.16c-0.45,20.44-9.74,33.16-29.23,39.44c-23.37,7.53-46.56,7.2-69.23-2.85
		c-15.12-6.7-24.13-18.23-26.73-34.64c-0.68-4.32,0.47-5.76,4.85-5.49C44.16,435.7,48.44,435.57,54.77,435.39z"/>
	<path class="st1" d="M413.72,392.52c-3.85,0-7.7-0.05-11.54,0.01c-5.75,0.09-9.55-2.58-11.74-7.84
		c-4.66-11.2-10.73-15.06-23.09-14.82c-11.98,0.23-18.42,4.72-22.76,15.89c-7.18,18.46-6.17,36.51,2.76,54.14
		c4.64,9.16,12.6,13.6,22.27,12.58c11.83-1.25,19.89-7.61,22.47-17.75c1.21-4.76,1.29-4.71,6.26-4.75
		c9.02-0.07,18.04,0.32,27.06-0.23c3.65-0.22,4.46,0.75,3.73,4.53c-4.51,23.36-18.74,38.42-40.97,45.57
		c-23.43,7.54-45.32,4.08-64.02-12.68c-10.01-8.97-15.1-20.96-17.69-33.9c-3.75-18.68-3.75-37.32,2.41-55.58
		c7.38-21.87,23.12-33.91,45.63-37.14c15.1-2.16,30.1-1.43,44.29,5.06c17.87,8.17,27.7,22.39,30.93,41.45
		c0.8,4.71,0.08,5.32-4.76,5.21c-3.74-0.08-7.48-0.02-11.23-0.02C413.72,392.35,413.72,392.44,413.72,392.52z"/>
	<path class="st3" d="M913.38,386.27c0-29.23,0-58.45,0-87.68c0-4.81,0.44-5.25,5.3-5.25c8.58-0.01,17.16-0.02,25.74,0
		c4.59,0.01,5.29,0.74,5.29,5.43c0,56.92,0,113.83,0,170.75c0,2.09,0.02,4.17-0.01,6.26c-0.03,2.39-1.32,3.75-3.67,3.76
		c-9.78,0.05-19.56,0.06-29.34-0.01c-3.01-0.02-3.37-2.13-3.36-4.58c0.05-13.84,0.04-27.69,0.05-41.53
		C913.39,417.7,913.38,401.98,913.38,386.27z"/>
	<path class="st2" d="M472.79,357.77c2.27-2.47,4-4.45,5.83-6.34c8.88-9.13,20.23-12,32.41-12.34c6.02-0.17,7.97,2.04,7.49,8.1
		c-0.65,8.34-0.79,16.66-0.38,25c0.19,3.75-1.35,4.77-5.11,4.26c-7.76-1.05-15.42-0.52-22.59,2.82
		c-11.57,5.38-15.36,15.42-15.43,27.25c-0.14,22.3-0.04,44.6-0.04,66.9c0,5.65-0.66,6.21-6.26,6.16
		c-8.46-0.07-16.92-0.06-25.38-0.02c-4.2,0.02-4.95-0.66-4.96-4.96c0-42.09,0-84.17,0-126.26c0-4.55,0.62-5.33,5.08-5.15
		c8.14,0.33,16.27,0.22,24.4,0c4.07-0.11,5.01,1.04,4.94,5.08C472.75,351.21,472.79,354.15,472.79,357.77z"/>
	<path class="st2" d="M1470.95,357.88c3.35-3.72,6.1-6.95,9.38-9.66c7.51-6.19,16.36-8.25,25.81-8.45c11.6-0.25,9.61-1.25,9.75,9.65
		c0.1,7.69,0.07,15.38,0.11,23.07c0.02,3.78-0.75,4.31-4.54,3.96c-9.69-0.9-19.2-0.48-27.5,5.44c-6.64,4.73-9.59,11.66-10.29,19.48
		c-1.32,14.57-0.46,29.2-0.62,43.81c-0.11,9.55,0.16,19.11,0.16,28.67c0,4.68-1.21,5.85-5.96,5.7c-8.46-0.28-16.92-0.29-25.39,0.01
		c-4.48,0.16-5.33-0.71-5.33-5.35c0.02-34.17,0.07-68.35,0.09-102.52c0-7.69-0.09-15.38-0.08-23.07c0.01-4.51,0.97-5.57,5.38-5.42
		c8.03,0.28,16.05,0.27,24.07,0c4.41-0.15,5.06,0.73,4.97,5.23C1470.9,351.33,1470.95,354.25,1470.95,357.88z"/>
	<path class="st2" d="M1000.86,411.31c0,20.54,0,41.07,0,61.61c0,6.51-0.23,6.64-6.65,6.58c-8.03-0.07-16.06,0-24.1,0.07
		c-5.07,0.05-5.85-0.62-5.85-5.52c0-41.85,0-83.7,0-125.55c0-4.49,0.86-5.49,5.4-5.32c8.69,0.32,17.36,0.25,26.05,0
		c4.42-0.13,5.14,0.68,5.14,5.19C1000.87,369.36,1000.86,390.34,1000.86,411.31z"/>
	<path class="st2" d="M982.51,327.33c-4.84,0-9.69-0.06-14.53,0.03c-2.68,0.05-3.77-1.08-3.75-3.74c0.07-8.79,0.09-17.58-0.01-26.37
		c-0.03-2.83,1.09-3.96,3.9-3.94c9.45,0.05,18.9,0.46,28.36-0.18c2.86-0.19,4.51,1.36,4.38,4.45c-0.36,8.67-0.31,17.35-0.03,26.03
		c0.08,2.55-1.08,3.82-3.79,3.76C992.2,327.26,987.35,327.33,982.51,327.33z"/>
</g>
</svg>
